<?xml version="1.0" encoding="UTF-8"?>
<svg width="64" height="64" viewBox="0 0 64 64" xmlns="http://www.w3.org/2000/svg">
  <!-- Background circle -->
  <circle cx="32" cy="32" r="30" fill="#4A90E2" stroke="#2E5C8A" stroke-width="2"/>
  
  <!-- AI Brain icon -->
  <g transform="translate(16, 16)">
    <!-- Brain outline -->
    <path d="M16 4C20 4 24 8 28 12C28 16 24 20 20 20C16 20 12 16 12 12C12 8 12 4 16 4Z" 
          fill="#FFFFFF" stroke="#2E5C8A" stroke-width="1.5"/>
    
    <!-- Neural connections -->
    <circle cx="18" cy="10" r="1.5" fill="#4A90E2"/>
    <circle cx="22" cy="14" r="1.5" fill="#4A90E2"/>
    <circle cx="14" cy="16" r="1.5" fill="#4A90E2"/>
    
    <!-- Connection lines -->
    <line x1="18" y1="10" x2="22" y2="14" stroke="#4A90E2" stroke-width="1"/>
    <line x1="22" y1="14" x2="14" y2="16" stroke="#4A90E2" stroke-width="1"/>
    <line x1="14" y1="16" x2="18" y2="10" stroke="#4A90E2" stroke-width="1"/>
  </g>
  
  <!-- Code brackets -->
  <text x="8" y="45" font-family="monospace" font-size="16" fill="#FFFFFF" font-weight="bold">&lt;</text>
  <text x="50" y="45" font-family="monospace" font-size="16" fill="#FFFFFF" font-weight="bold">/&gt;</text>
  
  <!-- AI text -->
  <text x="32" y="55" font-family="Arial, sans-serif" font-size="8" fill="#FFFFFF" text-anchor="middle" font-weight="bold">AI</text>
</svg>
